<?xml version="1.0" encoding="UTF-8" standalone="no"?>
<svg
   xmlns:dc="http://purl.org/dc/elements/1.1/"
   xmlns:cc="http://creativecommons.org/ns#"
   xmlns:rdf="http://www.w3.org/1999/02/22-rdf-syntax-ns#"
   xmlns:svg="http://www.w3.org/2000/svg"
   xmlns="http://www.w3.org/2000/svg"
   xmlns:sodipodi="http://sodipodi.sourceforge.net/DTD/sodipodi-0.dtd"
   xmlns:inkscape="http://www.inkscape.org/namespaces/inkscape"
   version="1.1"
   x="0px"
   y="0px"
   viewBox="0 0 42.5 47"
   enable-background="new 0 0 48 48"
   xml:space="preserve"
   id="svg3051"
   inkscape:version="0.91 r13725"
   width="100%"
   height="100%"
   sodipodi:docname="coffee_.svg"><metadata
     id="metadata3077"><rdf:RDF><cc:Work
         rdf:about=""><dc:format>image/svg+xml</dc:format><dc:type
           rdf:resource="http://purl.org/dc/dcmitype/StillImage" /><dc:title></dc:title></cc:Work></rdf:RDF></metadata><defs
     id="defs3075" /><sodipodi:namedview
     pagecolor="#ffffff"
     bordercolor="#666666"
     borderopacity="1"
     objecttolerance="10000"
     gridtolerance="10"
     guidetolerance="10"
     inkscape:pageopacity="0"
     inkscape:pageshadow="2"
     inkscape:window-width="1280"
     inkscape:window-height="751"
     id="namedview3073"
     showgrid="false"
     showborder="true"
     inkscape:showpageshadow="false"
     inkscape:zoom="7.0357125"
     inkscape:cx="20.989136"
     inkscape:cy="17.860004"
     inkscape:window-x="0"
     inkscape:window-y="1"
     inkscape:window-maximized="1"
     inkscape:current-layer="g3053"
     fit-margin-top="0"
     fit-margin-left="0"
     fit-margin-right="0"
     fit-margin-bottom="0" /><g
     id="g3053"
     transform="translate(-3,-1)"><path
       d="M 29.9,44.6 H 18.1 c -4.6,0 -8.4,-3.8 -8.4,-8.4 V 11.9 h 28.6 v 24.2 c 0,4.8 -3.7,8.5 -8.4,8.5 z M 11.7,13.9 v 22.3 c 0,3.5 2.9,6.4 6.4,6.4 h 11.8 c 3.6,0 6.4,-2.9 6.4,-6.5 V 13.9 H 11.7 z"
       id="path3055"
       inkscape:connector-curvature="0"
       style="fill:#e86195;fill-opacity:1" /><path
       d="m 41.4,33.6 h -5.1 v -19 h 5.1 c 2.3,0 4.1,1.8 4.1,4.1 v 10.8 c 0,2.3 -1.8,4.1 -4.1,4.1 z m -3.1,-2 h 3.1 c 1.1,0 2.1,-1 2.1,-2.1 V 18.7 c 0,-1.1 -1,-2.1 -2.1,-2.1 h -3.1 v 15 z"
       id="path3057"
       inkscape:connector-curvature="0"
       style="fill:#e86195;fill-opacity:1" /><rect
       x="3"
       y="46"
       width="42"
       height="2"
       id="rect3059"
       style="fill:#e86195;fill-opacity:1" /><g
       id="g3061"
       style="fill:#e86195;fill-opacity:1"><rect
         x="17.5"
         y="5"
         width="2"
         height="5.1999998"
         id="rect3063"
         style="fill:#e86195;fill-opacity:1" /><rect
         x="23"
         y="1"
         width="2"
         height="9.1999998"
         id="rect3065"
         style="fill:#e86195;fill-opacity:1" /><rect
         x="28.5"
         y="5"
         width="2"
         height="5.1999998"
         id="rect3067"
         style="fill:#e86195;fill-opacity:1" /></g></g></svg>