<?xml version="1.0" encoding="utf-8"?>
<!-- Generator: Adobe Illustrator 16.0.0, SVG Export Plug-In . SVG Version: 6.00 Build 0)  -->
<!DOCTYPE svg PUBLIC "-//W3C//DTD SVG 1.1//EN" "http://www.w3.org/Graphics/SVG/1.1/DTD/svg11.dtd">
<svg version="1.1"
	 id="svg3051" xmlns:dc="http://purl.org/dc/elements/1.1/" xmlns:cc="http://creativecommons.org/ns#" xmlns:inkscape="http://www.inkscape.org/namespaces/inkscape" xmlns:sodipodi="http://sodipodi.sourceforge.net/DTD/sodipodi-0.dtd" xmlns:svg="http://www.w3.org/2000/svg" xmlns:rdf="http://www.w3.org/1999/02/22-rdf-syntax-ns#" sodipodi:docname="0coffee.svg" inkscape:version="0.48.4 r9939"
	 xmlns="http://www.w3.org/2000/svg" xmlns:xlink="http://www.w3.org/1999/xlink" x="0px" y="0px" width="612px" height="792px"
	 viewBox="0 0 612 792" enable-background="new 0 0 612 792" xml:space="preserve">
<g id="g3053" transform="translate(-3,-1)">
	<path id="path3055" inkscape:connector-curvature="0" fill="#FFFFFF" stroke="#FFFFFF" stroke-miterlimit="10" d="M390.36,686.439
		H220.44c-66.24,0-120.96-54.72-120.96-120.96V215.56h411.84v348.48C511.32,633.16,458.04,686.439,390.36,686.439L390.36,686.439z
		 M128.28,244.36v321.12c0,50.4,41.76,92.16,92.16,92.16h169.92c51.84,0,92.159-41.76,92.159-93.6V244.36H128.28z"/>
	<path id="path3057" inkscape:connector-curvature="0" fill="#FFFFFF" stroke="#FFFFFF" stroke-miterlimit="10" d="M555.96,528.04
		h-73.44v-273.6h73.44c33.12,0,59.04,25.92,59.04,59.04V469C615,502.12,589.08,528.04,555.96,528.04z M511.32,499.24h44.64
		c15.84,0,30.24-14.4,30.24-30.24V313.48c0-15.84-14.4-30.24-30.24-30.24h-44.64V499.24L511.32,499.24z"/>
	<rect id="rect3059" x="3" y="706.6" fill="#FFFFFF" stroke="#FFFFFF" stroke-miterlimit="10" width="604.8" height="28.801"/>
	<g id="g3061">
		<rect id="rect3063" x="211.8" y="116.2" fill="#FFFFFF" stroke="#FFFFFF" stroke-miterlimit="10" width="28.8" height="74.88"/>
		<rect id="rect3065" x="291" y="58.6" fill="#FFFFFF" stroke="#FFFFFF" stroke-miterlimit="10" width="28.8" height="132.48"/>
		<rect id="rect3067" x="370.2" y="116.2" fill="#FFFFFF" stroke="#FFFFFF" stroke-miterlimit="10" width="28.8" height="74.88"/>
	</g>
</g>
</svg>
