<?xml version="1.0" encoding="UTF-8" standalone="no"?>
<svg
   xmlns:dc="http://purl.org/dc/elements/1.1/"
   xmlns:cc="http://creativecommons.org/ns#"
   xmlns:rdf="http://www.w3.org/1999/02/22-rdf-syntax-ns#"
   xmlns:svg="http://www.w3.org/2000/svg"
   xmlns="http://www.w3.org/2000/svg"
   xmlns:sodipodi="http://sodipodi.sourceforge.net/DTD/sodipodi-0.dtd"
   xmlns:inkscape="http://www.inkscape.org/namespaces/inkscape"
   version="1.1"
   x="0px"
   y="0px"
   viewBox="0 0 32 47.03923"
   enable-background="new 0 0 48 48"
   xml:space="preserve"
   id="svg3140"
   inkscape:version="0.48.4 r9939"
   width="100%"
   height="100%"
   sodipodi:docname="door.svg"><metadata
     id="metadata3164"><rdf:RDF><cc:Work
         rdf:about=""><dc:format>image/svg+xml</dc:format><dc:type
           rdf:resource="http://purl.org/dc/dcmitype/StillImage" /></cc:Work></rdf:RDF></metadata><defs
     id="defs3162" /><sodipodi:namedview
     pagecolor="#ffffff"
     bordercolor="#666666"
     borderopacity="1"
     objecttolerance="10000"
     gridtolerance="10"
     guidetolerance="10"
     inkscape:pageopacity="0"
     inkscape:pageshadow="2"
     inkscape:window-width="1301"
     inkscape:window-height="744"
     id="namedview3160"
     showgrid="false"
     showborder="true"
     inkscape:showpageshadow="false"
     fit-margin-top="0"
     fit-margin-left="0"
     fit-margin-right="0"
     fit-margin-bottom="0"
     inkscape:zoom="3.9333333"
     inkscape:cx="16"
     inkscape:cy="17.5"
     inkscape:window-x="65"
     inkscape:window-y="24"
     inkscape:window-maximized="1"
     inkscape:current-layer="svg3140" /><g
     id="g3142"
     transform="translate(-8,-0.46076952)"><g
       id="g3144"><path
         d="M 39,47.5 H 9 c -0.6,0 -1,-0.4 -1,-1 v -45 c 0,-0.6 0.4,-1 1,-1 h 30 c 0.6,0 1,0.4 1,1 v 45 c 0,0.6 -0.4,1 -1,1 z m -29,-2 H 38 V 2.5 H 10 v 43 z"
         id="path3146"
         inkscape:connector-curvature="0"
         style="fill:#000000" /></g><g
       id="g3148"><path
         d="m 39,47.5 c -0.1,0 -0.2,0 -0.3,0 l -22,-6 C 16.3,41.4 16,41 16,40.5 v -33 c 0,-0.5 0.3,-0.8 0.7,-1 l 22,-6 c 0.3,-0.1 0.6,0 0.9,0.2 0.3,0.2 0.4,0.5 0.4,0.8 v 45 c 0,0.3 -0.1,0.6 -0.4,0.8 -0.2,0.1 -0.4,0.2 -0.6,0.2 z M 18,39.8 38,45.2 V 2.8 L 18,8.2 v 31.6 z"
         id="path3150"
         inkscape:connector-curvature="0"
         style="fill:#000000" /></g><g
       id="g3152"><rect
         x="20"
         y="23"
         width="4"
         height="2"
         id="rect3154"
         style="fill:#000000" /></g></g></svg>