<?xml version="1.0" encoding="utf-8"?>
<!-- Generator: Adobe Illustrator 16.0.0, SVG Export Plug-In . SVG Version: 6.00 Build 0)  -->
<!DOCTYPE svg PUBLIC "-//W3C//DTD SVG 1.1//EN" "http://www.w3.org/Graphics/SVG/1.1/DTD/svg11.dtd">
<svg version="1.1"
	 id="svg3235" xmlns:dc="http://purl.org/dc/elements/1.1/" xmlns:cc="http://creativecommons.org/ns#" xmlns:inkscape="http://www.inkscape.org/namespaces/inkscape" xmlns:sodipodi="http://sodipodi.sourceforge.net/DTD/sodipodi-0.dtd" xmlns:svg="http://www.w3.org/2000/svg" xmlns:rdf="http://www.w3.org/1999/02/22-rdf-syntax-ns#" sodipodi:docname="humidity.svg" inkscape:version="0.48.4 r9939"
	 xmlns="http://www.w3.org/2000/svg" xmlns:xlink="http://www.w3.org/1999/xlink" x="0px" y="0px" width="612px" height="792px"
	 viewBox="0 0 612 792" enable-background="new 0 0 612 792" xml:space="preserve">
<g id="g3237" transform="translate(-6.0000005,-1007.3622)">
	<path id="path3239" inkscape:connector-curvature="0" fill="#FFFFFF" d="M261.097,1054.862c-46.716,0-85.069,37.961-85.197,84.559
		c0,122.521,0,245.145,0,367.703c-42.937,35.555-61.527,93.648-44.809,147.832c17.735,57.477,70.404,96.936,129.973,96.906
		c59.577,0,112.19-39.512,129.872-97.004c16.66-54.174-1.886-112.223-44.842-147.73c0-122.504,0-245.006,0-367.506
		c-0.022-46.598-38.282-84.758-84.997-84.758V1054.862z M261.062,1088.958c28.396,0,50.978,22.574,50.991,50.762
		c0,127.656,0,255.318,0,382.975l7.181,5.08c36.668,25.938,52.584,73.432,39.157,117.092
		c-13.423,43.648-52.791,73.004-97.329,73.004h-0.034c-44.548,0-83.966-29.273-97.429-72.904
		c-13.459-43.623,2.512-91.217,39.158-117.191l7.181-5.08c0-127.691,0-255.383,0-383.074
		C210.014,1111.432,232.667,1088.958,261.062,1088.958L261.062,1088.958z"/>
	<path id="path3241" inkscape:connector-curvature="0" fill="#FFFFFF" d="M261,1547.862c-37.354,0-68,30.646-68,68s30.646,68,68,68
		s68-30.646,68-68S298.354,1547.862,261,1547.862z M261,1581.862c18.979,0,34,15.021,34,34c0,18.98-15.021,34-34,34s-34-15.02-34-34
		C227,1596.884,242.021,1581.862,261,1581.862z"/>
	<path id="path3243" inkscape:connector-curvature="0" fill="#FFFFFF" d="M260.734,1343.86c-9.389,0.148-16.881,7.877-16.734,17.264
		v0.002v203.492c-0.133,9.389,7.371,17.105,16.76,17.238c9.389,0.133,17.107-7.369,17.24-16.756c0.002-0.162,0.002-0.322,0-0.482
		v-203.492c0.147-9.387-7.344-17.117-16.732-17.266C261.09,1343.858,260.912,1343.858,260.734,1343.86z"/>
	<path id="path3245" inkscape:connector-curvature="0" fill="#FFFFFF" d="M447.436,1071.874c-5.375,0.176-10.35,2.885-13.414,7.305
		c0,0-8.835,12.758-17.73,28.094c-4.447,7.668-8.956,16.025-12.551,24.209c-3.595,8.188-6.74,15.547-6.74,25.373
		c0,27.973,23.035,51.008,51,51.008s51-23.035,51-51.008c0-9.826-3.146-17.186-6.74-25.371c-3.595-8.184-8.104-16.543-12.551-24.211
		c-8.896-15.334-17.73-28.094-17.73-28.094C458.687,1074.431,453.209,1071.681,447.436,1071.874z M448,1120.69
		c1.124,1.861,1.146,1.684,2.291,3.65c4.053,6.988,8.044,14.494,10.824,20.822c2.78,6.33,3.885,12.127,3.885,11.691
		c0,9.592-7.409,17.002-17,17.002s-17-7.408-17-17.002c0,0.441,1.104-5.361,3.885-11.691c2.78-6.328,6.771-13.834,10.824-20.822
		C446.854,1122.37,446.876,1122.552,448,1120.69z"/>
	<path id="path3247" inkscape:connector-curvature="0" fill="#FFFFFF" d="M566.436,1156.874c-5.375,0.176-10.35,2.885-13.414,7.305
		c0,0-8.835,12.758-17.73,28.094c-4.447,7.668-8.956,16.025-12.551,24.209c-3.595,8.188-6.74,15.547-6.74,25.373
		c0,27.973,23.035,51.008,51,51.008s51-23.035,51-51.008c0-9.826-3.146-17.186-6.74-25.371c-3.595-8.184-8.104-16.543-12.551-24.211
		c-8.896-15.334-17.73-28.094-17.73-28.094C577.687,1159.431,572.209,1156.681,566.436,1156.874z M567,1205.69
		c1.124,1.861,1.146,1.684,2.291,3.65c4.053,6.988,8.044,14.494,10.824,20.822c2.78,6.33,3.885,12.127,3.885,11.691
		c0,9.592-7.409,17.002-17,17.002s-17-7.408-17-17.002c0,0.441,1.104-5.361,3.885-11.691c2.78-6.328,6.771-13.834,10.824-20.822
		C565.854,1207.37,565.876,1207.552,567,1205.69z"/>
	<path id="path3249" inkscape:connector-curvature="0" fill="#FFFFFF" d="M23.239,1071.862c-9.387-0.133-17.105,7.371-17.238,16.76
		c-0.132,9.389,7.37,17.107,16.757,17.24c0.161,0.002,0.321,0.002,0.481,0h84.521c9.387,0.133,17.105-7.371,17.238-16.76
		c0.132-9.389-7.37-17.107-16.757-17.24c-0.161-0.002-0.321-0.002-0.481,0H23.239z"/>
	<path id="path3251" inkscape:connector-curvature="0" fill="#FFFFFF" d="M23.239,1479.86c-9.387-0.133-17.105,7.371-17.238,16.76
		c-0.132,9.389,7.37,17.107,16.757,17.24c0.161,0.002,0.321,0.002,0.481,0h84.521c9.387,0.133,17.105-7.371,17.238-16.758
		c0.132-9.389-7.37-17.109-16.757-17.242c-0.161-0.002-0.321-0.002-0.481,0H23.239z"/>
	<path id="path3253" inkscape:connector-curvature="0" fill="#FFFFFF" d="M57.234,1275.862c-9.387-0.133-17.105,7.371-17.238,16.76
		c-0.132,9.389,7.37,17.107,16.757,17.24c0.16,0.002,0.32,0.002,0.48,0h50.527c9.387,0.133,17.104-7.371,17.237-16.76
		s-7.37-17.107-16.757-17.24c-0.16-0.002-0.32-0.002-0.48,0H57.234z"/>
	<path id="path3255" inkscape:connector-curvature="0" fill="#FFFFFF" d="M23.239,1207.862c-9.387-0.133-17.105,7.371-17.238,16.76
		c-0.132,9.389,7.37,17.107,16.757,17.24c0.161,0.002,0.321,0.002,0.481,0h84.521c9.387,0.133,17.105-7.371,17.238-16.76
		c0.132-9.389-7.37-17.107-16.757-17.24c-0.161-0.002-0.321-0.002-0.481,0H23.239z"/>
	<path id="path3257" inkscape:connector-curvature="0" fill="#FFFFFF" d="M57.234,1139.862c-9.387-0.133-17.105,7.371-17.238,16.76
		c-0.132,9.389,7.37,17.107,16.757,17.24c0.16,0.002,0.32,0.002,0.48,0h50.527c9.387,0.133,17.104-7.371,17.237-16.76
		s-7.37-17.107-16.757-17.24c-0.16-0.002-0.32-0.002-0.48,0H57.234z"/>
	<path id="path3259" inkscape:connector-curvature="0" fill="#FFFFFF" d="M57.234,1411.86c-9.387-0.133-17.105,7.371-17.238,16.76
		c-0.132,9.391,7.37,17.107,16.757,17.24c0.16,0.002,0.32,0.002,0.48,0h50.527c9.387,0.133,17.104-7.371,17.237-16.758
		c0.133-9.391-7.37-17.109-16.757-17.242c-0.16-0.002-0.32-0.002-0.48,0H57.234z"/>
	<path id="path3261" inkscape:connector-curvature="0" fill="#FFFFFF" d="M23.239,1343.86c-9.387-0.133-17.105,7.371-17.238,16.76
		c-0.132,9.389,7.37,17.107,16.757,17.24c0.161,0.002,0.321,0.002,0.481,0h84.521c9.387,0.133,17.105-7.371,17.238-16.758
		c0.132-9.389-7.37-17.109-16.757-17.242c-0.161-0.002-0.321-0.002-0.481,0H23.239z"/>
</g>
</svg>
