<?xml version="1.0" encoding="UTF-8" standalone="no"?>
<svg
   xmlns:dc="http://purl.org/dc/elements/1.1/"
   xmlns:cc="http://creativecommons.org/ns#"
   xmlns:rdf="http://www.w3.org/1999/02/22-rdf-syntax-ns#"
   xmlns:svg="http://www.w3.org/2000/svg"
   xmlns="http://www.w3.org/2000/svg"
   xmlns:sodipodi="http://sodipodi.sourceforge.net/DTD/sodipodi-0.dtd"
   xmlns:inkscape="http://www.inkscape.org/namespaces/inkscape"
   viewBox="0 0 35.999999 41"
   version="1.1"
   x="0px"
   y="0px"
   id="svg3235"
   inkscape:version="0.91 r13725"
   width="100%"
   height="100%"
   sodipodi:docname="humidity_.svg">
  <metadata
     id="metadata3271">
    <rdf:RDF>
      <cc:Work
         rdf:about="">
        <dc:format>image/svg+xml</dc:format>
        <dc:type
           rdf:resource="http://purl.org/dc/dcmitype/StillImage" />
        <dc:title></dc:title>
      </cc:Work>
    </rdf:RDF>
  </metadata>
  <defs
     id="defs3269" />
  <sodipodi:namedview
     pagecolor="#ffffff"
     bordercolor="#666666"
     borderopacity="1"
     objecttolerance="10"
     gridtolerance="10"
     guidetolerance="10"
     inkscape:pageopacity="0"
     inkscape:pageshadow="2"
     inkscape:window-width="664"
     inkscape:window-height="480"
     id="namedview3267"
     showgrid="false"
     fit-margin-top="0"
     fit-margin-left="0"
     fit-margin-right="0"
     fit-margin-bottom="0"
     showborder="false"
     inkscape:showpageshadow="false"
     inkscape:zoom="3.9333333"
     inkscape:cx="7.8305084"
     inkscape:cy="34.338982"
     inkscape:window-x="556"
     inkscape:window-y="103"
     inkscape:window-maximized="0"
     inkscape:current-layer="g3237" />
  <g
     transform="translate(-6.0000005,-1007.3622)"
     id="g3237">
    <path
       style="font-size:medium;font-style:normal;font-variant:normal;font-weight:normal;font-stretch:normal;text-indent:0;text-align:start;text-decoration:none;line-height:normal;letter-spacing:normal;word-spacing:normal;text-transform:none;direction:ltr;block-progression:tb;writing-mode:lr-tb;text-anchor:start;baseline-shift:baseline;color:#000000;fill:#366fd1;fill-opacity:1;fill-rule:nonzero;stroke:none;visibility:visible;display:inline;overflow:visible;enable-background:accumulate;font-family:sans-serif"
       d="m 21.005674,1007.3622 c -2.747995,0 -5.004057,2.233 -5.011566,4.974 -3e-6,7.2071 0,14.4203 0,21.6297 -2.525679,2.0914 -3.619237,5.5087 -2.635813,8.6959 1.043244,3.381 4.141424,5.7021 7.645424,5.7004 3.504577,0 6.599471,-2.3242 7.63956,-5.7062 0.980005,-3.1867 -0.110941,-6.6013 -2.63777,-8.6901 0,-7.2061 0,-14.4121 0,-21.618 -0.0013,-2.741 -2.251882,-4.9857 -4.999835,-4.9857 z m -0.002,2.0056 c 1.670324,0 2.998705,1.3278 2.99951,2.9859 0,7.5093 0,15.0187 0,22.528 l 0.422356,0.2988 c 2.15698,1.5256 3.093202,4.3195 2.303404,6.8877 -0.789607,2.5675 -3.105374,4.2943 -5.72527,4.2943 l -0.002,0 c -2.62049,0 -4.939188,-1.7219 -5.731135,-4.2885 -0.791747,-2.566 0.147759,-5.3657 2.303404,-6.8935 l 0.422403,-0.2988 c 0,-7.5113 0,-15.0226 0,-22.5338 0.0045,-1.6581 1.336979,-2.9801 3.00733,-2.9801 z"
       id="path3239"
       inkscape:connector-curvature="0" />
    <path
       style="font-size:medium;font-style:normal;font-variant:normal;font-weight:normal;font-stretch:normal;text-indent:0;text-align:start;text-decoration:none;line-height:normal;letter-spacing:normal;word-spacing:normal;text-transform:none;direction:ltr;block-progression:tb;writing-mode:lr-tb;text-anchor:start;baseline-shift:baseline;color:#000000;fill:#366fd1;fill-opacity:1;fill-rule:nonzero;stroke:none;visibility:visible;display:inline;overflow:visible;enable-background:accumulate;font-family:sans-serif"
       d="m 21,1036.3622 c -2.197294,0 -4,1.8027 -4,4 0,2.1973 1.802706,4 4,4 2.197294,0 4,-1.8027 4,-4 0,-2.1973 -1.802706,-4 -4,-4 z m 0,2 c 1.116414,0 2,0.8836 2,2 0,1.1164 -0.883586,2 -2,2 -1.116414,0 -2,-0.8836 -2,-2 0,-1.1164 0.883586,-2 2,-2 z"
       id="path3241"
       inkscape:connector-curvature="0" />
    <path
       style="font-size:medium;font-style:normal;font-variant:normal;font-weight:normal;font-stretch:normal;text-indent:0;text-align:start;text-decoration:none;line-height:normal;letter-spacing:normal;word-spacing:normal;text-transform:none;direction:ltr;block-progression:tb;writing-mode:lr-tb;text-anchor:start;baseline-shift:baseline;color:#000000;fill:#366fd1;fill-opacity:1;fill-rule:evenodd;stroke:none;visibility:visible;display:inline;overflow:visible;enable-background:accumulate;font-family:sans-serif"
       d="M 20.984375,1024.3621 A 1.0001,1.0000454 0 0 0 20,1025.3777 l 0,11.9701 a 1.0001,1.0000454 0 1 0 2,0 l 0,-11.9701 a 1.0001,1.0000454 0 0 0 -1.015625,-1.0156 z"
       id="path3243"
       inkscape:connector-curvature="0" />
    <path
       style="font-size:medium;font-style:normal;font-variant:normal;font-weight:normal;font-stretch:normal;text-indent:0;text-align:start;text-decoration:none;line-height:normal;letter-spacing:normal;word-spacing:normal;text-transform:none;direction:ltr;block-progression:tb;writing-mode:lr-tb;text-anchor:start;baseline-shift:baseline;color:#000000;fill:#366fd1;fill-opacity:1;fill-rule:nonzero;stroke:none;visibility:visible;display:inline;overflow:visible;enable-background:accumulate;font-family:sans-serif"
       d="m 31.966797,1008.3628 a 1.0001,1.0002795 0 0 0 -0.789063,0.4297 c 0,0 -0.519709,0.7505 -1.042968,1.6526 -0.26163,0.4511 -0.52682,0.9427 -0.738282,1.4241 C 29.185023,1012.3507 29,1012.7837 29,1013.3617 c 0,1.6454 1.355009,3.0005 3,3.0005 1.644991,0 3,-1.3551 3,-3.0005 0,-0.578 -0.185023,-1.011 -0.396484,-1.4925 -0.211462,-0.4814 -0.476652,-0.973 -0.738282,-1.4241 -0.523259,-0.9021 -1.042968,-1.6526 -1.042968,-1.6526 a 1.0001,1.0002795 0 0 0 -0.855469,-0.4297 z M 32,1011.2344 c 0.06613,0.1095 0.06744,0.099 0.134766,0.2148 0.23837,0.411 0.47318,0.8526 0.636718,1.2248 0.163539,0.3724 0.228516,0.7133 0.228516,0.6877 0,0.5643 -0.435853,1.0001 -1,1.0001 -0.564147,0 -1,-0.4358 -1,-1.0001 0,0.026 0.06498,-0.3153 0.228516,-0.6877 0.163538,-0.3722 0.398348,-0.8138 0.636718,-1.2248 0.06733,-0.116 0.06863,-0.1053 0.134766,-0.2148 z"
       id="path3245"
       inkscape:connector-curvature="0" />
    <path
       style="font-size:medium;font-style:normal;font-variant:normal;font-weight:normal;font-stretch:normal;text-indent:0;text-align:start;text-decoration:none;line-height:normal;letter-spacing:normal;word-spacing:normal;text-transform:none;direction:ltr;block-progression:tb;writing-mode:lr-tb;text-anchor:start;baseline-shift:baseline;color:#000000;fill:#366fd1;fill-opacity:1;fill-rule:nonzero;stroke:none;visibility:visible;display:inline;overflow:visible;enable-background:accumulate;font-family:sans-serif"
       d="m 38.966797,1013.3628 a 1.0001,1.0002795 0 0 0 -0.789063,0.4297 c 0,0 -0.519709,0.7505 -1.042968,1.6526 -0.26163,0.4511 -0.52682,0.9427 -0.738282,1.4241 C 36.185023,1017.3507 36,1017.7837 36,1018.3617 c 0,1.6454 1.355009,3.0005 3,3.0005 1.644991,0 3,-1.3551 3,-3.0005 0,-0.578 -0.185023,-1.011 -0.396484,-1.4925 -0.211462,-0.4814 -0.476652,-0.973 -0.738282,-1.4241 -0.523259,-0.9021 -1.042968,-1.6526 -1.042968,-1.6526 a 1.0001,1.0002795 0 0 0 -0.855469,-0.4297 z M 39,1016.2344 c 0.06613,0.1095 0.06744,0.099 0.134766,0.2148 0.23837,0.411 0.47318,0.8526 0.636718,1.2248 0.163539,0.3724 0.228516,0.7133 0.228516,0.6877 0,0.5643 -0.435853,1.0001 -1,1.0001 -0.564147,0 -1,-0.4358 -1,-1.0001 0,0.026 0.06498,-0.3153 0.228516,-0.6877 0.163538,-0.3722 0.398348,-0.8138 0.636718,-1.2248 0.06733,-0.116 0.06863,-0.1053 0.134766,-0.2148 z"
       id="path3247"
       inkscape:connector-curvature="0" />
    <path
       style="font-size:medium;font-style:normal;font-variant:normal;font-weight:normal;font-stretch:normal;text-indent:0;text-align:start;text-decoration:none;line-height:normal;letter-spacing:normal;word-spacing:normal;text-transform:none;direction:ltr;block-progression:tb;writing-mode:lr-tb;text-anchor:start;baseline-shift:baseline;color:#000000;fill:#366fd1;fill-opacity:1;fill-rule:evenodd;stroke:none;visibility:visible;display:inline;overflow:visible;enable-background:accumulate;font-family:sans-serif"
       d="m 7.0140772,1008.3621 a 0.999937,1.0001 0 1 0 0,2 l 4.9718458,0 a 0.999937,1.0001 0 1 0 0,-2 l -4.9718458,0 z"
       id="path3249"
       inkscape:connector-curvature="0" />
    <path
       style="font-size:medium;font-style:normal;font-variant:normal;font-weight:normal;font-stretch:normal;text-indent:0;text-align:start;text-decoration:none;line-height:normal;letter-spacing:normal;word-spacing:normal;text-transform:none;direction:ltr;block-progression:tb;writing-mode:lr-tb;text-anchor:start;baseline-shift:baseline;color:#000000;fill:#366fd1;fill-opacity:1;fill-rule:evenodd;stroke:none;visibility:visible;display:inline;overflow:visible;enable-background:accumulate;font-family:sans-serif"
       d="m 7.0140772,1032.3621 a 0.999937,1.0001 0 1 0 0,2 l 4.9718458,0 a 0.999937,1.0001 0 1 0 0,-2 l -4.9718458,0 z"
       id="path3251"
       inkscape:connector-curvature="0" />
    <path
       style="font-size:medium;font-style:normal;font-variant:normal;font-weight:normal;font-stretch:normal;text-indent:0;text-align:start;text-decoration:none;line-height:normal;letter-spacing:normal;word-spacing:normal;text-transform:none;direction:ltr;block-progression:tb;writing-mode:lr-tb;text-anchor:start;baseline-shift:baseline;color:#000000;fill:#366fd1;fill-opacity:1;fill-rule:evenodd;stroke:none;visibility:visible;display:inline;overflow:visible;enable-background:accumulate;font-family:sans-serif"
       d="m 9.0137513,1020.3621 a 0.9999369,1.0000999 0 1 0 0,2 l 2.9721717,0 a 0.9999369,1.0000999 0 1 0 0,-2 l -2.9721717,0 z"
       id="path3253"
       inkscape:connector-curvature="0" />
    <path
       style="font-size:medium;font-style:normal;font-variant:normal;font-weight:normal;font-stretch:normal;text-indent:0;text-align:start;text-decoration:none;line-height:normal;letter-spacing:normal;word-spacing:normal;text-transform:none;direction:ltr;block-progression:tb;writing-mode:lr-tb;text-anchor:start;baseline-shift:baseline;color:#000000;fill:#366fd1;fill-opacity:1;fill-rule:evenodd;stroke:none;visibility:visible;display:inline;overflow:visible;enable-background:accumulate;font-family:sans-serif"
       d="m 7.0140772,1016.3621 a 0.999937,1.0001 0 1 0 0,2 l 4.9718458,0 a 0.999937,1.0001 0 1 0 0,-2 l -4.9718458,0 z"
       id="path3255"
       inkscape:connector-curvature="0" />
    <path
       style="font-size:medium;font-style:normal;font-variant:normal;font-weight:normal;font-stretch:normal;text-indent:0;text-align:start;text-decoration:none;line-height:normal;letter-spacing:normal;word-spacing:normal;text-transform:none;direction:ltr;block-progression:tb;writing-mode:lr-tb;text-anchor:start;baseline-shift:baseline;color:#000000;fill:#366fd1;fill-opacity:1;fill-rule:evenodd;stroke:none;visibility:visible;display:inline;overflow:visible;enable-background:accumulate;font-family:sans-serif"
       d="m 9.0137513,1012.3621 a 0.9999369,1.0000999 0 1 0 0,2 l 2.9721717,0 a 0.9999369,1.0000999 0 1 0 0,-2 l -2.9721717,0 z"
       id="path3257"
       inkscape:connector-curvature="0" />
    <path
       style="font-size:medium;font-style:normal;font-variant:normal;font-weight:normal;font-stretch:normal;text-indent:0;text-align:start;text-decoration:none;line-height:normal;letter-spacing:normal;word-spacing:normal;text-transform:none;direction:ltr;block-progression:tb;writing-mode:lr-tb;text-anchor:start;baseline-shift:baseline;color:#000000;fill:#366fd1;fill-opacity:1;fill-rule:evenodd;stroke:none;visibility:visible;display:inline;overflow:visible;enable-background:accumulate;font-family:sans-serif"
       d="m 9.0137513,1028.3621 a 0.9999369,1.0000999 0 1 0 0,2 l 2.9721717,0 a 0.9999369,1.0000999 0 1 0 0,-2 l -2.9721717,0 z"
       id="path3259"
       inkscape:connector-curvature="0" />
    <path
       style="font-size:medium;font-style:normal;font-variant:normal;font-weight:normal;font-stretch:normal;text-indent:0;text-align:start;text-decoration:none;line-height:normal;letter-spacing:normal;word-spacing:normal;text-transform:none;direction:ltr;block-progression:tb;writing-mode:lr-tb;text-anchor:start;baseline-shift:baseline;color:#000000;fill:#366fd1;fill-opacity:1;fill-rule:evenodd;stroke:none;visibility:visible;display:inline;overflow:visible;enable-background:accumulate;font-family:sans-serif"
       d="m 7.0140772,1024.3621 a 0.999937,1.0001 0 1 0 0,2 l 4.9718458,0 a 0.999937,1.0001 0 1 0 0,-2 l -4.9718458,0 z"
       id="path3261"
       inkscape:connector-curvature="0" />
  </g>
</svg>
