<?xml version="1.0" encoding="UTF-8" standalone="no"?>
<svg
   xmlns:dc="http://purl.org/dc/elements/1.1/"
   xmlns:cc="http://creativecommons.org/ns#"
   xmlns:rdf="http://www.w3.org/1999/02/22-rdf-syntax-ns#"
   xmlns:svg="http://www.w3.org/2000/svg"
   xmlns="http://www.w3.org/2000/svg"
   xmlns:sodipodi="http://sodipodi.sourceforge.net/DTD/sodipodi-0.dtd"
   xmlns:inkscape="http://www.inkscape.org/namespaces/inkscape"
   version="1.1"
   x="0px"
   y="0px"
   viewBox="0 0 82.950043 82.982002"
   enable-background="new 0 0 100 100"
   xml:space="preserve"
   id="svg3516"
   inkscape:version="0.91 r13725"
   sodipodi:docname="member_.svg"
   width="82.950043"
   height="82.982002"><metadata
     id="metadata3528"><rdf:RDF><cc:Work
         rdf:about=""><dc:format>image/svg+xml</dc:format><dc:type
           rdf:resource="http://purl.org/dc/dcmitype/StillImage" /><dc:title></dc:title></cc:Work></rdf:RDF></metadata><defs
     id="defs3526" /><sodipodi:namedview
     pagecolor="#ffffff"
     bordercolor="#666666"
     borderopacity="1"
     objecttolerance="10"
     gridtolerance="10"
     guidetolerance="10"
     inkscape:pageopacity="0"
     inkscape:pageshadow="2"
     inkscape:window-width="1280"
     inkscape:window-height="751"
     id="namedview3524"
     showgrid="false"
     inkscape:zoom="2.0470873"
     inkscape:cx="-11.667369"
     inkscape:cy="10.021099"
     inkscape:window-x="0"
     inkscape:window-y="1"
     inkscape:window-maximized="1"
     inkscape:current-layer="svg3516"
     fit-margin-top="0"
     fit-margin-left="0"
     fit-margin-right="0"
     fit-margin-bottom="0" /><path
     d="M 41.475043,0 C 18.641043,0 0.03504297,18.604 4.2969167e-5,41.472 -0.01595703,52.761 4.437043,63.706 12.220043,71.501 c 7.393,7.403 17.214,11.481 27.656,11.481 0.557,0 1.118,-0.011 1.682,-0.035 23.21,-0.951 41.392,-19.168 41.392,-41.472 0,-22.87 -18.605,-41.475 -41.475,-41.475 z m -0.082,78.951 c -0.508,0.021 -1.015,0.031 -1.518,0.031 -8.268,0 -16.101,-2.852 -22.388,-8.087 0.002,-0.04 0.012,-0.078 0.012,-0.119 0,-10.51 6.162,-19.454 15.39,-22.497 2.322,1.189 4.943,1.874 7.727,1.874 2.783,0 5.405,-0.685 7.728,-1.874 9.447,3.103 16.004,12.192 16.052,22.383 -6.315,4.88 -14.263,7.93 -23.003,8.289 z m -0.777,-32.798 c -7.182,0 -13.024,-5.842 -13.024,-13.024 0,-7.182 5.842,-13.024 13.024,-13.024 7.182,0 13.024,5.843 13.024,13.024 0,7.181 -5.842,13.024 -13.024,13.024 z m 27.549,21.192 c -1.191,-9.572 -7.276,-17.91 -15.911,-21.825 3.307,-3.107 5.386,-7.506 5.386,-12.391 0,-9.387 -7.637,-17.024 -17.024,-17.024 -9.387,0 -17.024,7.637 -17.024,17.024 0,4.888 2.082,9.288 5.392,12.396 -8.391,3.852 -14.136,12.027 -15.261,21.743 -6.213,-6.929 -9.736,-16.218 -9.721,-25.791 0.031,-20.665 16.842,-37.478 37.475,-37.478 20.662,10e-4 37.473,16.812 37.473,37.476 0,10.026 -4.086,19.137 -10.785,25.87 z"
     id="path3518"
     inkscape:connector-curvature="0"
     style="fill:#8a4ddb;fill-opacity:1" /></svg>