<?xml version="1.0" encoding="UTF-8" standalone="no"?>
<svg
   xmlns:dc="http://purl.org/dc/elements/1.1/"
   xmlns:cc="http://creativecommons.org/ns#"
   xmlns:rdf="http://www.w3.org/1999/02/22-rdf-syntax-ns#"
   xmlns:svg="http://www.w3.org/2000/svg"
   xmlns="http://www.w3.org/2000/svg"
   xmlns:sodipodi="http://sodipodi.sourceforge.net/DTD/sodipodi-0.dtd"
   xmlns:inkscape="http://www.inkscape.org/namespaces/inkscape"
   version="1.1"
   x="0px"
   y="0px"
   viewBox="0 0 51.588856 75.582802"
   enable-background="new 0 0 100 100"
   xml:space="preserve"
   id="svg3778"
   inkscape:version="0.91 r13725"
   sodipodi:docname="sound.svg"
   width="51.588856"
   height="75.582802"><metadata
     id="metadata3794"><rdf:RDF><cc:Work
         rdf:about=""><dc:format>image/svg+xml</dc:format><dc:type
           rdf:resource="http://purl.org/dc/dcmitype/StillImage" /><dc:title></dc:title></cc:Work></rdf:RDF></metadata><defs
     id="defs3792" /><sodipodi:namedview
     pagecolor="#ffffff"
     bordercolor="#666666"
     borderopacity="1"
     objecttolerance="10"
     gridtolerance="10"
     guidetolerance="10"
     inkscape:pageopacity="0"
     inkscape:pageshadow="2"
     inkscape:window-width="640"
     inkscape:window-height="480"
     id="namedview3790"
     showgrid="false"
     inkscape:zoom="1.888"
     inkscape:cx="26.437"
     inkscape:cy="25.79"
     inkscape:window-x="20"
     inkscape:window-y="42"
     inkscape:window-maximized="0"
     inkscape:current-layer="svg3778"
     fit-margin-top="0"
     fit-margin-left="0"
     fit-margin-right="0"
     fit-margin-bottom="0" /><g
     id="g3780"
     transform="translate(-23.563,-12.7072)"><path
       d="M 75.123,57.671 C 73.662,57.657 72.189,57.51 70.766,57.763 67.94,68.328 58.513,74.006 49.995,74.125 45.366,74.189 41.12,72.979 37.272,70.42 32.656,67.353 29.64,63.109 28.21,57.717 c -1.549,-0.127 -3.021,-0.139 -4.647,0.014 0.812,4.419 2.67,8.195 5.468,11.512 4.679,5.545 10.695,8.643 17.828,9.536 0.365,1.664 0.328,3.575 -0.104,4.831 -0.576,0 -1.181,0.004 -1.787,-0.001 -1.107,-0.009 -1.929,0.445 -2.369,1.485 -0.452,1.066 -0.102,1.939 0.695,2.69 0.156,0.146 0.372,0.249 0.379,0.506 3.882,0 7.763,0 11.645,0 0.083,-0.133 0.139,-0.295 0.25,-0.395 0.868,-0.767 1.292,-1.661 0.811,-2.806 -0.471,-1.121 -1.376,-1.5 -2.536,-1.493 -0.592,0.003 -1.214,0.153 -1.929,-0.246 -0.019,-1.454 -0.181,-2.972 0.109,-4.573 5.763,-0.676 10.82,-2.854 15.147,-6.663 4.459,-3.924 8.357,-10.962 7.953,-14.443 z"
       id="path3782"
       inkscape:connector-curvature="0"
       style="clip-rule:evenodd;fill-rule:evenodd" /><path
       d="m 32.978,41.047 c 0,3.549 -0.01,7.098 0.005,10.646 0.005,1.163 -0.037,2.342 0.13,3.485 1.263,8.66 8.896,14.85 17.813,14.186 C 59.24,68.745 65.947,61.583 65.994,52.981 66.037,45.053 65.998,37.124 66.008,29.196 66.01,27.8 65.852,26.428 65.5,25.083 63.404,17.079 55.684,11.833 47.475,12.828 39.274,13.822 33.072,20.754 32.988,29.072 32.947,33.065 32.98,37.056 32.98,41.048 32.979,41.047 32.978,41.047 32.978,41.047 Z m 4.704,0.045 c 0,-3.989 -0.039,-7.979 0.009,-11.967 0.082,-6.774 5.713,-12.014 12.481,-11.672 5.942,0.3 10.997,5.261 11.088,11.209 0.128,8.253 0.129,16.511 0.003,24.765 -0.095,6.3 -5.499,11.288 -11.874,11.253 C 43.052,64.645 37.81,59.552 37.699,53.226 37.627,49.183 37.685,45.137 37.685,41.093 37.684,41.092 37.683,41.092 37.682,41.092 Z"
       id="path3784"
       inkscape:connector-curvature="0"
       style="clip-rule:evenodd;fill-rule:evenodd" /></g></svg>