<?xml version="1.0" encoding="utf-8"?>
<!-- Generator: Adobe Illustrator 16.0.0, SVG Export Plug-In . SVG Version: 6.00 Build 0)  -->
<!DOCTYPE svg PUBLIC "-//W3C//DTD SVG 1.1//EN" "http://www.w3.org/Graphics/SVG/1.1/DTD/svg11.dtd">
<svg version="1.1"
	 id="svg3111" xmlns:dc="http://purl.org/dc/elements/1.1/" xmlns:cc="http://creativecommons.org/ns#" xmlns:inkscape="http://www.inkscape.org/namespaces/inkscape" xmlns:sodipodi="http://sodipodi.sourceforge.net/DTD/sodipodi-0.dtd" xmlns:svg="http://www.w3.org/2000/svg" xmlns:rdf="http://www.w3.org/1999/02/22-rdf-syntax-ns#" sodipodi:docname="temperature.svg" inkscape:version="0.48.4 r9939"
	 xmlns="http://www.w3.org/2000/svg" xmlns:xlink="http://www.w3.org/1999/xlink" x="0px" y="0px" width="612px" height="792px"
	 viewBox="0 0 612 792" enable-background="new 0 0 612 792" xml:space="preserve">
<g id="g3113" transform="translate(-5.0000005,-1008.3622)">
	<path id="path3115" inkscape:connector-curvature="0" fill="#FFFFFF" d="M246.67,1074.204c-44.257,0-80.592,35.963-80.713,80.108
		c0,116.071,0,232.241,0,348.351c-40.676,33.684-58.289,88.719-42.45,140.051c16.802,54.451,66.699,91.834,123.131,91.807
		c56.442,0,106.286-37.432,123.037-91.9c15.783-51.32-1.786-106.314-42.481-139.955c0-116.055,0-232.111,0-348.163
		C327.173,1110.356,290.927,1074.205,246.67,1074.204L246.67,1074.204z M246.638,1106.506c26.901,0,48.295,21.385,48.308,48.088
		c0,120.938,0,241.882,0,362.819l6.802,4.812c34.739,24.572,49.817,69.566,37.097,110.93c-12.717,41.35-50.013,69.16-92.207,69.16
		c-42.204,0-79.547-27.732-92.301-69.066c-12.751-41.326,2.379-86.416,37.097-111.023l6.771-4.812c0-120.971,0-241.941,0-362.912
		C198.277,1127.797,219.737,1106.506,246.638,1106.506z"/>
	<path id="path3117" inkscape:connector-curvature="0" fill="#FFFFFF" d="M246.579,1541.257c-35.388,0-64.421,29.033-64.421,64.422
		c0,35.387,29.033,64.42,64.421,64.42c35.388,0,64.421-29.033,64.421-64.42C311,1570.29,281.967,1541.257,246.579,1541.257z
		 M246.579,1573.468c17.98,0,32.21,14.23,32.21,32.211s-14.23,32.211-32.21,32.211c-17.98,0-32.211-14.23-32.211-32.211
		S228.599,1573.468,246.579,1573.468z"/>
	<path id="path3119" inkscape:connector-curvature="0" fill="#FFFFFF" d="M583.846,1138.611l-0.032,32.211
		c-17.7-0.016-33.613,8.562-41.647,21.013c-8.033,12.45-7.963,26.557,0.252,38.943c8.216,12.383,24.295,20.777,41.993,20.57
		l0.378,32.211c-27.909,0.322-54.282-12.488-69.202-34.979c-14.921-22.49-15.131-51.534-0.504-74.204
		C529.71,1151.709,555.935,1138.586,583.846,1138.611L583.846,1138.611z"/>
	<path id="path3121" inkscape:connector-curvature="0" fill="#FFFFFF" d="M585.013,1138.625
		c-8.891-0.126-16.201,6.981-16.327,15.877c-0.126,8.894,6.979,16.207,15.871,16.333c0.151,0.002,0.304,0.002,0.456,0h15.658
		c8.892,0.126,16.201-6.982,16.327-15.877c0.127-8.895-6.979-16.208-15.87-16.333c-0.152-0.002-0.305-0.002-0.457,0H585.013z"/>
	<path id="path3123" inkscape:connector-curvature="0" fill="#FFFFFF" d="M585.013,1251.362c-8.891-0.127-16.201,6.98-16.327,15.877
		c-0.126,8.893,6.979,16.207,15.871,16.332c0.151,0.002,0.304,0.002,0.456,0h15.658c8.892,0.127,16.201-6.982,16.327-15.877
		c0.127-8.895-6.979-16.207-15.87-16.332c-0.152-0.002-0.305-0.002-0.457,0H585.013z"/>
	<path id="path3125" inkscape:connector-curvature="0" fill="#FFFFFF" d="M391.526,1122.52c0.007-26.49,21.825-48.319,48.315-48.316
		c26.491,0.003,48.316,21.826,48.316,48.316h-32.211c0-9.085-7.022-16.104-16.105-16.105c-9.083,0-16.103,7.021-16.105,16.105
		H391.526z"/>
	<path id="path3127" inkscape:connector-curvature="0" fill="#FFFFFF" d="M455.947,1138.626c0,9.084-7.022,16.104-16.105,16.104
		c-9.083,0.002-16.103-6.987-16.105-16.072h-32.21c0.007,26.489,21.825,48.287,48.315,48.283
		c26.491-0.003,48.316-21.824,48.316-48.315H455.947z"/>
	<path id="path3129" inkscape:connector-curvature="0" fill="#FFFFFF" d="M471.801,1106.401
		c-8.895,0.139-15.992,7.462-15.854,16.355c0,0.001,0,0.001,0,0.002v15.634c-0.126,8.896,6.983,16.207,15.878,16.332
		c8.895,0.126,16.207-6.981,16.333-15.877c0.002-0.151,0.002-0.304,0-0.455v-15.634c0.14-8.894-6.958-16.218-15.853-16.357
		C472.138,1106.398,471.97,1106.398,471.801,1106.401z"/>
	<path id="path3131" inkscape:connector-curvature="0" fill="#FFFFFF" d="M407.38,1106.414c-8.895,0.139-15.992,7.46-15.854,16.352
		v0.001v15.631c-0.126,8.893,6.983,16.202,15.878,16.328s16.207-6.98,16.332-15.873c0.003-0.151,0.003-0.304,0-0.455v-15.631
		c0.14-8.892-6.958-16.213-15.853-16.353C407.716,1106.411,407.548,1106.411,407.38,1106.414z"/>
	<path id="path3133" inkscape:connector-curvature="0" fill="#FFFFFF" d="M246.327,1219.151
		c-8.895,0.139-15.992,7.461-15.854,16.355l0,0v321.621c-0.125,8.895,6.983,16.207,15.877,16.334
		c8.895,0.123,16.208-6.982,16.333-15.877c0.002-0.154,0.002-0.305,0-0.457v-321.621c0.14-8.895-6.958-16.217-15.852-16.357
		c-0.168-0.002-0.336-0.002-0.505,0V1219.151z"/>
	<path id="path3135" inkscape:connector-curvature="0" fill="#FFFFFF" d="M21.332,1492.938c-8.893-0.125-16.205,6.984-16.331,15.879
		c-0.125,8.893,6.982,16.207,15.875,16.332c0.152,0.002,0.304,0.002,0.456,0h80.073c8.893,0.127,16.205-6.982,16.331-15.877
		c0.125-8.895-6.982-16.207-15.875-16.334c-0.152-0.002-0.304-0.002-0.456,0H21.332z"/>
	<path id="path3137" inkscape:connector-curvature="0" fill="#FFFFFF" d="M53.542,1299.677c-8.893-0.143-16.218,6.951-16.361,15.846
		s6.949,16.221,15.841,16.365c0.173,0.002,0.347,0.002,0.52,0h47.864c8.893,0.125,16.204-6.984,16.33-15.879
		c0.125-8.895-6.981-16.207-15.874-16.332c-0.152-0.002-0.304-0.002-0.456,0H53.542z"/>
	<path id="path3139" inkscape:connector-curvature="0" fill="#FFFFFF" d="M21.332,1235.257c-8.893-0.127-16.205,6.982-16.331,15.877
		c-0.125,8.895,6.982,16.207,15.875,16.332c0.152,0.002,0.304,0.002,0.456,0h80.073c8.893,0.127,16.205-6.982,16.331-15.877
		c0.125-8.895-6.982-16.207-15.875-16.332c-0.152-0.002-0.304-0.002-0.456,0H21.332z"/>
	<path id="path3141" inkscape:connector-curvature="0" fill="#FFFFFF" d="M53.542,1170.835c-8.893-0.126-16.204,6.983-16.33,15.877
		c-0.125,8.896,6.981,16.208,15.874,16.334c0.152,0.002,0.304,0.002,0.456,0h47.864c8.893,0.126,16.204-6.983,16.33-15.878
		c0.125-8.895-6.981-16.207-15.874-16.333c-0.152-0.002-0.304-0.002-0.456,0H53.542L53.542,1170.835z"/>
	<path id="path3143" inkscape:connector-curvature="0" fill="#FFFFFF" d="M21.332,1106.414c-8.893-0.126-16.205,6.983-16.331,15.877
		c-0.125,8.896,6.982,16.208,15.875,16.334c0.152,0.002,0.304,0.002,0.456,0h80.073c8.893,0.125,16.205-6.983,16.331-15.878
		c0.125-8.895-6.982-16.207-15.875-16.333c-0.152-0.002-0.304-0.002-0.456,0H21.332z"/>
	<path id="path3145" inkscape:connector-curvature="0" fill="#FFFFFF" d="M53.542,1428.518c-8.893-0.127-16.204,6.982-16.33,15.877
		c-0.125,8.896,6.981,16.207,15.874,16.334c0.152,0.002,0.304,0.002,0.456,0h47.864c8.893,0.125,16.204-6.984,16.33-15.877
		c0.125-8.896-6.981-16.209-15.874-16.334c-0.152-0.002-0.304-0.002-0.456,0H53.542L53.542,1428.518z"/>
	<path id="path3147" inkscape:connector-curvature="0" fill="#FFFFFF" d="M21.332,1364.097c-8.893-0.125-16.205,6.984-16.331,15.877
		c-0.125,8.895,6.982,16.209,15.875,16.334c0.152,0.002,0.304,0.002,0.456,0h80.073c8.893,0.127,16.205-6.982,16.331-15.877
		c0.125-8.895-6.982-16.207-15.875-16.334c-0.152-0.002-0.304-0.002-0.456,0H21.332z"/>
</g>
</svg>
